<?xml version="1.0" encoding="UTF-8"?>
<svg width="19px" height="16px" viewBox="0 0 19 16" version="1.1" xmlns="http://www.w3.org/2000/svg" xmlns:xlink="http://www.w3.org/1999/xlink">
    <!-- Generator: Sketch 49.2 (51160) - http://www.bohemiancoding.com/sketch -->
    <title>Like Icon - Active</title>
    <desc>Created with Sketch.</desc>
    <defs></defs>
    <g id="Symbols" stroke="none" stroke-width="1" fill="none" fill-rule="evenodd">
        <g id="Footer" transform="translate(-19.000000, -13.000000)" fill="#83909E">
            <g id="Group-17">
                <g transform="translate(12.000000, 4.000000)">
                    <g id="Group-24">
                        <g id="Heart-Copy-6">
                            <path d="M20.544597,9.01295238 C18.6528153,9.14552381 17.5762608,10.0537143 16.3333333,10.8948571 C15.0908117,10.0537143 14.0138514,9.14552381 12.1220696,9.01295238 C11.997087,9.00419048 11.8712929,9 11.7450929,9 C10.237592,9 8.69519335,9.62590476 7.78420019,10.8704762 C6.18093338,13.0609524 7.29563192,16.1992381 8.80678494,18.4411429 C11.305625,22.1485714 16.3333333,25 16.3333333,25 C16.3333333,25 21.3610417,22.1485714 23.8598817,18.4411429 C25.3710347,16.1992381 26.4857333,13.0609524 24.8824665,10.8704762 C23.9710675,9.62590476 22.4286689,9 20.9215737,9 C20.7953738,9 20.6699854,9.00457143 20.544597,9.01295238 Z" id="Like-Icon---Active"></path>
                        </g>
                    </g>
                </g>
            </g>
        </g>
    </g>
</svg>