<?xml version="1.0" encoding="UTF-8"?>
<svg width="20px" height="16px" viewBox="0 0 20 16" version="1.1" xmlns="http://www.w3.org/2000/svg" xmlns:xlink="http://www.w3.org/1999/xlink">
    <!-- Generator: Sketch 49.2 (51160) - http://www.bohemiancoding.com/sketch -->
    <title>Combined Shape</title>
    <desc>Created with Sketch.</desc>
    <defs></defs>
    <g id="Symbols" stroke="none" stroke-width="1" fill="none" fill-rule="evenodd">
        <g id="Footer" transform="translate(-343.000000, -12.000000)" fill="#83909E">
            <g id="Group-17">
                <g transform="translate(12.000000, 4.000000)">
                    <g id="Group-23" transform="translate(325.000000, 0.000000)">
                        <g id="Heart-Copy-9">
                            <path d="M17.8166878,23.3311426 L17.8166878,24 L17.8166878,23.3311426 C17.3746943,23.3994366 17.0769231,23.0295733 17.0769231,22.2837204 L17.0769231,18.8773944 C15.2897048,18.7494546 10.5478096,18.9317135 6,23.5867971 C6,23.5867971 6.84021104,13.3643783 17.0769231,12.905874 L17.0769231,9.70297154 C17.0769231,8.95915761 17.3736027,8.58634628 17.8162625,8.65381711 C17.8166878,8.25374612 17.8166878,8 17.8166878,8 L17.8166878,8.65388206 C18.031296,8.68672271 18.2801904,8.82301132 18.5462091,9.07063756 L24.5054085,14.6178195 C25.3168727,15.3731793 25.3204201,16.5957084 24.5054085,17.3558041 L18.5462091,22.9134696 C18.2806995,23.1610889 18.0316387,23.2979298 17.8166878,23.3311426 Z" id="Combined-Shape"></path>
                        </g>
                    </g>
                </g>
            </g>
        </g>
    </g>
</svg>