<?xml version="1.0" encoding="UTF-8"?>
<svg width="12px" height="12px" viewBox="0 0 12 12" version="1.1" xmlns="http://www.w3.org/2000/svg" xmlns:xlink="http://www.w3.org/1999/xlink">
    <!-- Generator: Sketch 49.2 (51160) - http://www.bohemiancoding.com/sketch -->
    <title>Combined Shape</title>
    <desc>Created with Sketch.</desc>
    <defs></defs>
    <g id="Web-PC" stroke="none" stroke-width="1" fill="none" fill-rule="evenodd">
        <g id="Cong-Dong" transform="translate(-614.000000, -408.000000)" fill="#FFFFFF">
            <g id="Group-37" transform="translate(406.000000, 74.000000)">
                <g id="Group-3" transform="translate(187.000000, 324.000000)">
                    <g id="Group-4">
                        <path d="M28,15 L32,15 C32.5522847,15 33,15.4477153 33,16 C33,16.5522847 32.5522847,17 32,17 L28,17 L28,21 C28,21.5522847 27.5522847,22 27,22 C26.4477153,22 26,21.5522847 26,21 L26,17 L22,17 C21.4477153,17 21,16.5522847 21,16 C21,15.4477153 21.4477153,15 22,15 L26,15 L26,11 C26,10.4477153 26.4477153,10 27,10 C27.5522847,10 28,10.4477153 28,11 L28,15 Z" id="Combined-Shape"></path>
                    </g>
                </g>
            </g>
        </g>
    </g>
</svg>