<?xml version="1.0" encoding="UTF-8"?>
<svg width="22px" height="18px" viewBox="0 0 22 18" version="1.1" xmlns="http://www.w3.org/2000/svg" xmlns:xlink="http://www.w3.org/1999/xlink">
    <!-- Generator: Sketch 49.2 (51160) - http://www.bohemiancoding.com/sketch -->
    <title>Group 7</title>
    <desc>Created with Sketch.</desc>
    <defs></defs>
    <g id="Symbols" stroke="none" stroke-width="1" fill="none" fill-rule="evenodd">
        <g id="Footer" transform="translate(-118.000000, -12.000000)" fill="#83909E">
            <g id="Group-17">
                <g transform="translate(12.000000, 4.000000)">
                    <g id="Group-21" transform="translate(101.000000, 0.000000)">
                        <g id="Heart-Copy-7">
                            <g id="Group-7" transform="translate(5.333333, 8.000000)">
                                <g id="Group-6">
                                    <path d="M18.5167231,5.586 C18.5167231,5.586 18.6954923,6.51538462 18.7310308,6.97953846 C18.7671077,7.44476923 18.4451077,7.945 18.9453385,8.58792308 C19.4461077,9.23138462 20.5181846,10.3034615 20.7324923,11.0896154 C20.9828769,11.8402308 20.9828769,13.5202308 20.2322615,14.4490769 C19.4816462,15.414 18.1952615,16.9507692 17.6589538,17.0223846 C17.1226462,17.094 12.4412615,17.3083077 12.0121077,17.2011538 C11.6190308,17.094 10.8328769,15.8070769 11.4047231,15.1280769 C11.9765692,14.4490769 12.0837231,14.3419231 12.0837231,14.3419231 C12.0837231,14.3419231 12.7982615,14.1992308 13.4061846,13.8061538 C14.8713385,14.0920769 16.0505692,14.056 16.5868769,13.6629231 C17.1226462,13.3053846 18.0881077,11.3044615 18.2308,10.1963077 C18.3379538,9.08815385 18.4095692,8.51630769 18.2308,7.30153846 C18.4451077,5.87192308 18.5167231,5.586 18.5167231,5.586" id="Fill-4"></path>
                                    <path d="M14.2282,5.15716923 C14.2282,5.15716923 13.5136615,5.87224615 13.5136615,6.6584 C13.5136615,7.44455385 13.1916615,11.8760923 13.3348923,12.4124 C13.4775846,12.9126308 13.6208154,13.5916308 14.4785846,13.6627077 C15.3363538,13.7343231 15.7649692,13.8059385 16.2296615,13.5560923 C16.6943538,13.3057077 17.5521231,11.9832462 17.7664308,11.0899385 C17.9807385,10.1960923 18.1239692,9.19563077 18.1239692,8.51663077 C18.1239692,7.83763077 17.8735846,7.62332308 18.0878923,6.76555385 C18.2666615,5.90778462 18.3738154,4.94286154 18.0523538,3.69201538 C17.7303538,2.44116923 16.5872,0.975476923 15.6222769,0.868323077 C14.6568154,0.761169231 13.2632769,0.761169231 12.7985846,0.618476923 C12.3338923,0.475246154 11.6193538,0.332553846 10.7971231,0.332553846 C9.97543077,0.332553846 8.65296923,1.15424615 7.75966154,1.22586154 C6.86581538,1.29747692 6.86581538,1.15424615 5.50781538,1.83378462 C4.14981538,2.51224615 2.43427692,2.72709231 2.00566154,3.19178462 C1.57650769,3.69201538 0.218507692,5.94332308 0.0397384615,6.87270769 C-0.139030769,7.80209231 0.325661538,9.33886154 0.6832,10.0534 C1.04073846,10.7679385 1.14789231,12.6267077 1.96958462,13.1624769 C2.79181538,13.6987846 3.7212,13.9130923 4.32858462,13.7704 C4.97204615,13.6271692 5.04312308,13.1985538 5.04312308,13.1985538 C5.04312308,13.1985538 4.90043077,8.33786154 4.90043077,7.90924615 C4.93596923,7.48009231 3.86389231,6.40801538 3.61404615,5.47863077 C4.0782,6.19370769 4.97204615,7.37293846 4.97204615,7.37293846 C4.97204615,7.37293846 5.22189231,5.40755385 5.0792,4.79963077 C5.40066154,5.58578462 5.25796923,7.73047692 5.18635385,8.48109231 C5.11473846,9.23116923 5.15081538,13.1269385 5.22189231,13.5200154 C5.57943077,14.0202462 6.11573846,14.1634769 6.72312308,14.1634769 C7.33050769,14.1634769 8.43866154,13.8059385 8.65296923,13.5200154 C8.86727692,13.2340923 9.11766154,6.72947692 9.08158462,6.44409231 C9.04604615,6.15763077 9.61789231,5.33593846 9.61789231,5.33593846 C9.61789231,5.33593846 9.36750769,6.05047692 9.33196923,6.72947692 C9.29643077,7.40901538 9.08158462,13.4844769 8.97443077,13.8059385 C8.86727692,14.1274 9.51073846,14.2706308 10.0109692,14.3061692 C10.5112,14.3422462 12.2628154,14.7708615 13.3348923,13.3057077 C13.3348923,13.3057077 12.9418154,12.6622462 13.0489692,11.4114 C13.1561231,10.0889385 13.2632769,8.0164 13.2632769,7.19416923 C13.2632769,6.37247692 13.6918923,5.26432308 14.2282,5.15716923" id="Fill-1" stroke="#FFFFFF" stroke-width="0.5"></path>
                                </g>
                            </g>
                        </g>
                    </g>
                </g>
            </g>
        </g>
    </g>
</svg>