<?xml version="1.0" encoding="UTF-8"?>
<svg width="17px" height="22px" viewBox="0 0 17 22" version="1.1" xmlns="http://www.w3.org/2000/svg" xmlns:xlink="http://www.w3.org/1999/xlink">
    <!-- Generator: Sketch 49.2 (51160) - http://www.bohemiancoding.com/sketch -->
    <title>Page 1</title>
    <desc>Created with Sketch.</desc>
    <defs></defs>
    <g id="Symbols" stroke="none" stroke-width="1" fill="none" fill-rule="evenodd">
        <g id="navigation" transform="translate(-1043.000000, -14.000000)" fill="#83909E">
            <g id="Group-12" transform="translate(1034.000000, 8.000000)">
                <path d="M17.4997235,28 C18.7153818,28 19.7603201,26.885346 20.2089755,25.3003467 L14.7904714,25.3003467 C15.2391268,26.885346 16.2848899,28 17.4997235,28 M25.8765494,22.8092883 L24.3417189,20.5662887 L24.3417189,14.5033442 C24.3417189,11.1344152 21.7875169,8.34939102 18.4679615,7.88951571 L18.4679615,6.94479812 C18.4679615,6.4229081 18.0341513,6.00008054 17.4997235,6.00008054 C16.9661204,6.00008054 16.5323102,6.4229081 16.5323102,6.94479812 L16.5323102,7.88951571 C13.2127548,8.34939102 10.6585527,11.1344152 10.6585527,14.5033442 L10.6585527,20.5662887 L9.12372227,22.8100937 C8.95712595,23.1024487 8.95877542,23.4608454 9.12867067,23.7515897 C9.29856593,24.042334 9.60949075,24.2211297 9.94598233,24.2211297 L25.0542893,24.2211297 C25.3907809,24.2211297 25.7017057,24.042334 25.8707763,23.7515897 C26.0398468,23.4608454 26.042321,23.1024487 25.8765494,22.8092883" id="Page-1"></path>
            </g>
        </g>
    </g>
</svg>