<?xml version="1.0" encoding="UTF-8"?>
<svg width="14px" height="14px" viewBox="0 0 14 14" version="1.1" xmlns="http://www.w3.org/2000/svg" xmlns:xlink="http://www.w3.org/1999/xlink">
    <!-- Generator: Sketch 49.2 (51160) - http://www.bohemiancoding.com/sketch -->
    <title>Shape</title>
    <desc>Created with Sketch.</desc>
    <defs></defs>
    <g id="Web-PC" stroke="none" stroke-width="1" fill="none" fill-rule="evenodd">
        <g id="Tim-Kiem-LichSu" transform="translate(-502.000000, -159.000000)" fill="#83909E" fill-rule="nonzero">
            <g id="Group-27" transform="translate(418.000000, 129.000000)">
                <g id="Group-8">
                    <g id="Messages">
                        <g id="Message-1">
                            <g id="Group-15" transform="translate(84.000000, 4.000000)">
                                <g id="Group-12" transform="translate(0.000000, 23.000000)">
                                    <path d="M1.5,3 C0.671875,3 0,3.671875 0,4.5 L0,11.5 C0,12.328125 0.671875,13 1.5,13 L2,13 L2,13.5 C2,14.328125 2.671875,15 3.5,15 L8.316406,15 L7.332031,14 L3.5,14 C3.222656,14 3,13.773438 3,13.5 L3,6.5 C3,6.226563 3.222656,6 3.5,6 L10.5,6 C10.777344,6 11,6.226563 11,6.5 L11,10.332031 L12,11.316406 L12,6.5 C12,5.671875 11.328125,5 10.5,5 L10,5 L10,4.5 C10,3.671875 9.328125,3 8.5,3 L1.5,3 Z M1.5,4 L8.5,4 C8.777344,4 9,4.226563 9,4.5 L9,5 L3.5,5 C2.671875,5 2,5.671875 2,6.5 L2,12 L1.5,12 C1.222656,12 1,11.773438 1,11.5 L1,4.5 C1,4.226563 1.222656,4 1.5,4 Z M5.953125,8.953125 L6.648438,11.875 L6.742188,11.972656 L11.3125,16.621094 C11.796875,17.117188 12.613281,17.125 13.105469,16.628906 L13.628906,16.105469 C14.125,15.613281 14.117188,14.796875 13.621094,14.3125 L8.875,9.648438 L5.953125,8.953125 Z M7.296875,10.296875 L8.375,10.554688 L12.921875,15.027344 C13.03125,15.132813 13.03125,15.292969 12.921875,15.398438 L12.398438,15.921875 C12.292969,16.03125 12.132813,16.03125 12.027344,15.921875 L7.554688,11.375 L7.296875,10.296875 Z" id="Shape"></path>
                                </g>
                            </g>
                        </g>
                    </g>
                </g>
            </g>
        </g>
    </g>
</svg>