<?xml version="1.0" encoding="UTF-8"?>
<svg width="17px" height="16px" viewBox="0 0 17 16" version="1.1" xmlns="http://www.w3.org/2000/svg" xmlns:xlink="http://www.w3.org/1999/xlink">
    <!-- Generator: Sketch 49.2 (51160) - http://www.bohemiancoding.com/sketch -->
    <title>Fill 31</title>
    <desc>Created with Sketch.</desc>
    <defs></defs>
    <g id="Symbols" stroke="none" stroke-width="1" fill="none" fill-rule="evenodd">
        <g id="Footer" transform="translate(-221.000000, -14.000000)" fill="#83909E">
            <g id="Group-17">
                <g transform="translate(12.000000, 4.000000)">
                    <g id="Group-22" transform="translate(201.000000, 0.000000)">
                        <g id="Heart-Copy-8">
                            <path d="M20.0100734,18.0604402 C19.1323771,18.0604402 18.4149786,17.3421658 18.4149786,16.4644695 C18.4149786,15.5867732 19.1323771,14.8676229 20.0100734,14.8676229 C20.8877696,14.8676229 21.606044,15.5867732 21.606044,16.4644695 C21.606044,17.3421658 20.8877696,18.0604402 20.0100734,18.0604402 M16.0201467,18.0604402 C15.1424505,18.0604402 14.4241761,17.3421658 14.4241761,16.4644695 C14.4241761,15.5867732 15.1424505,14.8676229 16.0201467,14.8676229 C16.897843,14.8676229 17.6169933,15.5867732 17.6169933,16.4644695 C17.6169933,17.3421658 16.897843,18.0604402 16.0201467,18.0604402 M12.0302201,18.0604402 C11.1525238,18.0604402 10.4333735,17.3421658 10.4333735,16.4644695 C10.4333735,15.5867732 11.1525238,14.8676229 12.0302201,14.8676229 C12.9087923,14.8676229 13.6261907,15.5867732 13.6261907,16.4644695 C13.6261907,17.3421658 12.9087923,18.0604402 12.0302201,18.0604402 M22.5634512,10 L9.59597066,10 C8.71739845,10 8,10.7182744 8,11.5959707 L8,21.3715099 C8,22.2500821 8.71739845,22.9683565 9.59597066,22.9683565 L14.5441804,22.9683565 L17.0984342,25.621592 C17.2771269,25.8607248 17.5766999,26 17.8753969,26 C18.2143874,26 18.5341071,25.8204314 18.7145516,25.5418811 C18.7530932,25.4823169 18.7933866,25.4026059 18.8135333,25.322895 L19.4722435,22.9683565 L22.5634512,22.9683565 C23.4420234,22.9683565 24.1602978,22.2500821 24.1602978,21.3715099 L24.1602978,11.5959707 C24.1602978,10.7182744 23.4420234,10 22.5634512,10" id="Fill-31"></path>
                        </g>
                    </g>
                </g>
            </g>
        </g>
    </g>
</svg>