<?xml version="1.0" encoding="UTF-8"?>
<svg width="13px" height="12px" viewBox="0 0 13 12" version="1.1" xmlns="http://www.w3.org/2000/svg" xmlns:xlink="http://www.w3.org/1999/xlink">
    <!-- Generator: Sketch 49.2 (51160) - http://www.bohemiancoding.com/sketch -->
    <title>Shape</title>
    <desc>Created with Sketch.</desc>
    <defs></defs>
    <g id="Web-PC" stroke="none" stroke-width="1" fill="none" fill-rule="evenodd">
        <g id="Tim-Kiem-LichSu" transform="translate(-502.000000, -180.000000)" fill="#83909E" fill-rule="nonzero">
            <g id="Group-27" transform="translate(418.000000, 129.000000)">
                <g id="Group-8">
                    <g id="Messages">
                        <g id="Message-1">
                            <g id="Group-15" transform="translate(84.000000, 4.000000)">
                                <g id="Group-12" transform="translate(0.000000, 23.000000)">
                                    <path d="M2,24 C0.894531,24 0,24.894531 0,26 L0,34 C0,35.105469 0.894531,36 2,36 L10,36 C11.105469,36 12,35.105469 12,34 L12,28 L11,29 L11,34 C11,34.550781 10.550781,35 10,35 L2,35 C1.449219,35 1,34.550781 1,34 L1,26 C1,25.449219 1.449219,25 2,25 L9,25 L10,24 L2,24 Z M11.5,24.792969 L5.5,30.792969 L3.851563,29.148438 L3.5,28.792969 L2.792969,29.5 L3.148438,29.851563 L5.5,32.207031 L12.207031,25.5 L11.5,24.792969 Z" id="Shape"></path>
                                </g>
                            </g>
                        </g>
                    </g>
                </g>
            </g>
        </g>
    </g>
</svg>