<?xml version="1.0" encoding="UTF-8"?>
<svg width="24px" height="24px" viewBox="0 0 24 24" version="1.1" xmlns="http://www.w3.org/2000/svg" xmlns:xlink="http://www.w3.org/1999/xlink">
    <!-- Generator: Sketch 49.2 (51160) - http://www.bohemiancoding.com/sketch -->
    <title>Fill 1</title>
    <desc>Created with Sketch.</desc>
    <defs></defs>
    <g id="Web-PC" stroke="none" stroke-width="1" fill="none" fill-rule="evenodd">
        <g id="Popup-Login" transform="translate(-588.000000, -632.000000)" fill="#FEFEFE">
            <g id="Group-5" transform="translate(480.000000, 189.000000)">
                <g id="Group-2" transform="translate(100.000000, 435.000000)">
                    <g id="FB">
                        <g id="Page-1" transform="translate(8.000000, 8.000000)">
                            <path d="M22.666436,3.59550562e-05 L1.32405393,3.59550562e-05 C0.59272809,3.59550562e-05 8.98876405e-06,0.592755056 8.98876405e-06,1.3240809 L8.98876405e-06,22.6664629 C8.98876405e-06,23.3976989 0.59272809,23.9905978 1.32405393,23.9905978 L12.8141213,23.9905978 L12.8141213,14.7001708 L9.68764944,14.7001708 L9.68764944,11.0794966 L12.8141213,11.0794966 L12.8141213,8.40938427 C12.8141213,5.31077753 14.7066157,3.62349663 17.4708404,3.62349663 C18.7949753,3.62349663 19.9329528,3.72201348 20.2645483,3.76605843 L20.2645483,7.00435056 L18.3474247,7.00524944 C16.8441438,7.00524944 16.5529978,7.71958652 16.5529978,8.76785618 L16.5529978,11.0794966 L20.1383461,11.0794966 L19.6715596,14.7001708 L16.5529978,14.7001708 L16.5529978,23.9905978 L22.666436,23.9905978 C23.3976719,23.9905978 23.9904809,23.3976989 23.9904809,22.6664629 L23.9904809,1.3240809 C23.9904809,0.592755056 23.3976719,3.59550562e-05 22.666436,3.59550562e-05" id="Fill-1"></path>
                        </g>
                    </g>
                </g>
            </g>
        </g>
    </g>
</svg>