<?xml version="1.0" encoding="UTF-8"?>
<svg width="24px" height="22px" viewBox="0 0 24 22" version="1.1" xmlns="http://www.w3.org/2000/svg" xmlns:xlink="http://www.w3.org/1999/xlink">
    <!-- Generator: Sketch 49.2 (51160) - http://www.bohemiancoding.com/sketch -->
    <title>Combined Shape</title>
    <desc>Created with Sketch.</desc>
    <defs></defs>
    <g id="Web-PC" stroke="none" stroke-width="1" fill="none" fill-rule="evenodd">
        <g id="Ca-Nhan-CapNhat" transform="translate(-292.000000, -321.000000)" fill="#FFFFFF">
            <g id="Group-5-Copy" transform="translate(233.000000, 273.000000)">
                <path d="M77.3255,59.9745 C77.3255,62.7645 74.4935,66.3 71,66.3 C67.5065,66.3 64.6745,63.468 64.6745,59.9745 C64.6745,56.4795 67.5065,53.649 71,53.649 C74.4935,53.649 77.3255,56.4795 77.3255,59.9745 M78.827,55.8975 C78.1955,55.8975 77.684,55.3875 77.684,54.756 C77.684,54.126 78.1955,53.616 78.827,53.616 C79.457,53.616 79.9685,54.126 79.9685,54.756 C79.9685,55.3875 79.457,55.8975 78.827,55.8975 M79.088,50.583 C81.245,50.583 83,52.338 83,54.4965 L83,65.9745 C83,68.1315 81.245,69.8865 79.088,69.8865 L62.9135,69.8865 C60.755,69.8865 59,68.1315 59,65.9745 L59,54.4965 C59,52.338 60.755,50.583 62.9135,50.583 L63.6965,50.583 C64.8875,50.583 65.21,50.1855 65.696,49.5825 C66.266,48.8775 66.974,48 68.9135,48 L73.088,48 C75.0275,48 75.734,48.8775 76.304,49.5825 C76.7915,50.1855 77.1125,50.583 78.3035,50.583 L79.088,50.583 Z M71.0003,55.2783 C68.4098,55.2783 66.3038,57.3843 66.3038,59.9748 C66.3038,62.5638 68.4098,64.6698 71.0003,64.6698 C73.5923,64.6698 75.6968,61.8288 75.6968,59.9748 C75.6968,57.3843 73.5908,55.2783 71.0003,55.2783 Z" id="Combined-Shape"></path>
            </g>
        </g>
    </g>
</svg>