<?xml version="1.0" encoding="UTF-8"?>
<svg width="12px" height="12px" viewBox="0 0 12 12" version="1.1" xmlns="http://www.w3.org/2000/svg" xmlns:xlink="http://www.w3.org/1999/xlink">
    <!-- Generator: Sketch 49.2 (51160) - http://www.bohemiancoding.com/sketch -->
    <title>Combined Shape</title>
    <desc>Created with Sketch.</desc>
    <defs></defs>
    <g id="Web-PC" stroke="none" stroke-width="1" fill="none" fill-rule="evenodd">
        <g id="Trang-Chu" transform="translate(-741.000000, -2551.000000)" fill="#8590A6">
            <g id="Group-47" transform="translate(407.000000, 2348.000000)">
                <g id="Group-37-Copy-2" transform="translate(255.000000, 0.000000)">
                    <g id="Group-34" transform="translate(10.000000, 193.000000)">
                        <g id="Group-44" transform="translate(69.000000, 9.000000)">
                            <path d="M7,6 L11,6 C11.5522847,6 12,6.44771525 12,7 C12,7.55228475 11.5522847,8 11,8 L7,8 L7,12 C7,12.5522847 6.55228475,13 6,13 C5.44771525,13 5,12.5522847 5,12 L5,8 L1,8 C0.44771525,8 6.76353751e-17,7.55228475 0,7 C-6.76353751e-17,6.44771525 0.44771525,6 1,6 L5,6 L5,2 C5,1.44771525 5.44771525,1 6,1 C6.55228475,1 7,1.44771525 7,2 L7,6 Z" id="Combined-Shape"></path>
                        </g>
                    </g>
                </g>
            </g>
        </g>
    </g>
</svg>