<?xml version="1.0" encoding="UTF-8"?>
<svg width="21px" height="14px" viewBox="0 0 21 14" version="1.1" xmlns="http://www.w3.org/2000/svg" xmlns:xlink="http://www.w3.org/1999/xlink">
    <!-- Generator: Sketch 49.2 (51160) - http://www.bohemiancoding.com/sketch -->
    <title>Group 2</title>
    <desc>Created with Sketch.</desc>
    <defs></defs>
    <g id="Symbols" stroke="none" stroke-width="1" fill="none" fill-rule="evenodd">
        <g id="add" transform="translate(-6.000000, -6.000000)" fill="#83909E">
            <g id="Group">
                <g transform="translate(6.000000, 6.000000)">
                    <g id="Group-2">
                        <polygon id="Shape" fill-rule="nonzero" points="3 3 3 6 0 6 0 8 3 8 3 11 5 11 5 8 8 8 8 6 5 6 5 3"></polygon>
                        <path d="M14.5,0 C16.4345707,0 18,1.56543012 18,3.5 C18,5.43457075 16.4345707,7 14.5,7 C12.5654301,7 11,5.43457075 11,3.5 C11,1.56543012 12.5654301,0 14.5,0 Z M14.5,9 C19.4575199,9 21,12.3325 21,12.3325 L21,13.99875 L8,13.99875 L8,12.3325 C8,12.3325 9.54248088,9 14.5,9 Z" id="Combined-Shape"></path>
                    </g>
                </g>
            </g>
        </g>
    </g>
</svg>