<?xml version="1.0" encoding="UTF-8"?>
<svg width="20px" height="20px" viewBox="0 0 20 20" version="1.1" xmlns="http://www.w3.org/2000/svg" xmlns:xlink="http://www.w3.org/1999/xlink">
    <!-- Generator: Sketch 49.2 (51160) - http://www.bohemiancoding.com/sketch -->
    <title>Shape</title>
    <desc>Created with Sketch.</desc>
    <defs></defs>
    <g id="Web-PC" stroke="none" stroke-width="1" fill="none" fill-rule="evenodd">
        <g id="Ca-Nhan-TheoDoi" transform="translate(-1047.000000, -347.000000)" fill="#FFFFFF" fill-rule="nonzero">
            <g id="Group-9" transform="translate(214.000000, 74.000000)">
                <g id="icons8-edit-user" transform="translate(833.000000, 273.000000)">
                    <g id="Shape">
                        <path d="M8,0 C5.789063,0 4,1.789063 4,4 C4,6.210938 5.789063,8 8,8 C10.210938,8 12,6.210938 12,4 C12,1.789063 10.210938,0 8,0 Z M17.78125,9 C17.621094,9 17.464844,9.066406 17.34375,9.1875 L16.28125,10.25 L18.75,12.71875 L19.8125,11.65625 C20.054688,11.414063 20.054688,11.023438 19.8125,10.78125 L18.21875,9.1875 C18.097656,9.066406 17.941406,9 17.78125,9 Z M8,10 C1.921875,10 0,14 0,14 L0,16 L8,16 L12.90625,11.09375 C11.707031,10.46875 10.101563,10 8,10 Z M15.5,11 L9,17.5 L9,20 L11.5,20 L18,13.5 L15.5,11 Z"></path>
                    </g>
                </g>
            </g>
        </g>
    </g>
</svg>