<?xml version="1.0" encoding="UTF-8"?>
<svg width="24px" height="6px" viewBox="0 0 24 6" version="1.1" xmlns="http://www.w3.org/2000/svg" xmlns:xlink="http://www.w3.org/1999/xlink">
    <!-- Generator: Sketch 49.2 (51160) - http://www.bohemiancoding.com/sketch -->
    <title>Shape</title>
    <desc>Created with Sketch.</desc>
    <defs></defs>
    <g id="Symbols" stroke="none" stroke-width="1" fill="none" fill-rule="evenodd">
        <g id="Footer" transform="translate(-464.000000, -17.000000)" fill="#83909E" fill-rule="nonzero">
            <g id="Group-17">
                <g transform="translate(12.000000, 4.000000)">
                    <g id="icons8-more" transform="translate(452.000000, 13.000000)">
                        <path d="M3,0 C1.34375,0 0,1.34375 0,3 C0,4.65625 1.34375,6 3,6 C4.65625,6 6,4.65625 6,3 C6,1.34375 4.65625,0 3,0 Z M12,0 C10.34375,0 9,1.34375 9,3 C9,4.65625 10.34375,6 12,6 C13.65625,6 15,4.65625 15,3 C15,1.34375 13.65625,0 12,0 Z M21,0 C19.34375,0 18,1.34375 18,3 C18,4.65625 19.34375,6 21,6 C22.65625,6 24,4.65625 24,3 C24,1.34375 22.65625,0 21,0 Z" id="Shape"></path>
                    </g>
                </g>
            </g>
        </g>
    </g>
</svg>