<?xml version="1.0" encoding="UTF-8"?>
<svg width="20px" height="20px" viewBox="0 0 20 20" version="1.1" xmlns="http://www.w3.org/2000/svg" xmlns:xlink="http://www.w3.org/1999/xlink">
    <!-- Generator: Sketch 49.2 (51160) - http://www.bohemiancoding.com/sketch -->
    <title>2</title>
    <desc>Created with Sketch.</desc>
    <defs></defs>
    <g id="Web-PC" stroke="none" stroke-width="1" fill="none" fill-rule="evenodd">
        <g id="Trang-Chu" transform="translate(-221.000000, -148.000000)">
            <g id="LEFT" transform="translate(214.000000, 77.000000)">
                <g id="Group-4">
                    <g id="2" transform="translate(5.000000, 69.000000)">
                        <rect id="Rectangle-7" x="0" y="0" width="24" height="24"></rect>
                        <path d="M21.3688347,2.00276819 C21.2201815,1.99938949 21.0039587,1.99770036 20.7319906,2.00614645 C19.1001842,2.06526999 15.4767629,2.54501436 12.5746471,5.44544062 C11.5019791,6.51979774 10.9968965,7.30191632 10.1083556,8.48607398 L5.31935797,8.48607398 L2,14.177126 L3.2888908,15.4677059 L7.1809015,14.170369 L9.829631,16.8190985 L8.5322941,20.7111092 L9.82287403,22 L15.513926,18.680642 L15.513926,13.8933335 C16.6930163,13.0047931 17.4869592,12.506467 18.5613163,11.4321099 C22.4279883,7.56374874 21.9938535,2.40818597 21.9938535,2.40818597 L21.9617579,2.0449991 L21.5968819,2.01459255 C21.5968819,2.01459255 21.5174879,2.00783558 21.3688347,2.00276819 Z M17.6761542,5.02650892 C18.0089345,5.02650892 18.3400257,5.15320208 18.593412,5.40658798 C19.1001842,5.9133602 19.1001842,6.73433143 18.593412,7.24110365 C18.0866398,7.74787588 17.2656686,7.74787588 16.7588963,7.24110365 C16.2521241,6.73433143 16.2521241,5.9133602 16.7588963,5.40658798 C17.0122827,5.15320208 17.3433739,5.02650892 17.6761542,5.02650892 Z" id="Shape" fill="#83909E" fill-rule="nonzero"></path>
                    </g>
                </g>
            </g>
        </g>
    </g>
</svg>