<?xml version="1.0" encoding="UTF-8"?>
<svg width="22px" height="17px" viewBox="0 0 22 17" version="1.1" xmlns="http://www.w3.org/2000/svg" xmlns:xlink="http://www.w3.org/1999/xlink">
    <!-- Generator: Sketch 49.2 (51160) - http://www.bohemiancoding.com/sketch -->
    <title>3</title>
    <desc>Created with Sketch.</desc>
    <defs></defs>
    <g id="Web-PC" stroke="none" stroke-width="1" fill="none" fill-rule="evenodd">
        <g id="Trang-Chu" transform="translate(-220.000000, -188.000000)">
            <g id="LEFT" transform="translate(214.000000, 77.000000)">
                <g id="Group-4">
                    <g id="3" transform="translate(5.000000, 107.000000)">
                        <rect id="Rectangle-8" x="0" y="0" width="24" height="24"></rect>
                        <path d="M8.76470588,4 C6.56571659,4 4.88235294,5.68336365 4.88235294,7.88235294 C4.88235294,10.0813422 6.56571659,11.7647059 8.76470588,11.7647059 C10.9636952,11.7647059 12.6470588,10.0813422 12.6470588,7.88235294 C12.6470588,5.68336365 10.9636952,4 8.76470588,4 Z M17.1764706,4 C15.392004,4 13.9411765,5.45082753 13.9411765,7.23529412 C13.9411765,9.01976071 15.392004,10.4705882 17.1764706,10.4705882 C18.9609372,10.4705882 20.4117647,9.01976071 20.4117647,7.23529412 C20.4117647,5.45082753 18.9609372,4 17.1764706,4 Z M17.1764706,13.0588235 C15.6245401,13.0588235 14.4416364,13.4632353 13.5367647,14.1102941 C16.514246,15.5358462 17.7022059,17.9774813 17.7022059,18.2352941 L17.7022059,18.3566176 L23,18.3566176 L23,16.6985294 C23,16.5670962 21.5744492,13.0588235 17.1764706,13.0588235 Z M8.76470588,14.3529412 C2.80974329,14.3529412 1,18.6397059 1,18.6397059 L1,20.8235294 L16.5294118,20.8235294 L16.5294118,18.6397059 C16.5294118,18.6397059 14.7196698,14.3529412 8.76470588,14.3529412 Z" id="Shape" fill="#83909E" fill-rule="nonzero"></path>
                    </g>
                </g>
            </g>
        </g>
    </g>
</svg>