<?xml version="1.0" encoding="UTF-8"?>
<svg width="16px" height="16px" viewBox="0 0 16 16" version="1.1" xmlns="http://www.w3.org/2000/svg" xmlns:xlink="http://www.w3.org/1999/xlink">
    <!-- Generator: Sketch 49.2 (51160) - http://www.bohemiancoding.com/sketch -->
    <title>Shape</title>
    <desc>Created with Sketch.</desc>
    <defs></defs>
    <g id="Symbols" stroke="none" stroke-width="1" fill="none" fill-rule="evenodd">
        <g id="navigation" transform="translate(-1001.000000, -17.000000)" fill="#83909E" fill-rule="nonzero">
            <path d="M1007.18182,17 C1003.7642,17 1001,19.7642047 1001,23.1818182 C1001,26.599432 1003.7642,29.3636364 1007.18182,29.3636364 C1008.40199,29.3636364 1009.53125,29.0056818 1010.48864,28.3977273 L1014.95455,32.8636364 L1016.5,31.3181818 L1012.09091,26.9204545 C1012.88352,25.8806818 1013.36364,24.5923295 1013.36364,23.1818182 C1013.36364,19.7642047 1010.59943,17 1007.18182,17 Z M1007.18182,18.4545455 C1009.79972,18.4545455 1011.90909,20.5639204 1011.90909,23.1818182 C1011.90909,25.799716 1009.79972,27.9090909 1007.18182,27.9090909 C1004.56392,27.9090909 1002.45455,25.799716 1002.45455,23.1818182 C1002.45455,20.5639204 1004.56392,18.4545455 1007.18182,18.4545455 Z" id="Shape"></path>
        </g>
    </g>
</svg>