<?xml version="1.0" encoding="UTF-8"?>
<svg width="20px" height="20px" viewBox="0 0 20 20" version="1.1" xmlns="http://www.w3.org/2000/svg" xmlns:xlink="http://www.w3.org/1999/xlink">
    <!-- Generator: Sketch 49.2 (51160) - http://www.bohemiancoding.com/sketch -->
    <title>Shape</title>
    <desc>Created with Sketch.</desc>
    <defs></defs>
    <g id="Web-PC" stroke="none" stroke-width="1" fill="none" fill-rule="evenodd">
        <g id="Cong-Dong-ChiTiet" transform="translate(-222.000000, -771.000000)" fill="#83909E" fill-rule="nonzero">
            <g id="LEFT" transform="translate(214.000000, 586.000000)">
                <g id="Group-4">
                    <g id="2-copy-3" transform="translate(6.000000, 183.000000)">
                        <g id="icons8-about" transform="translate(2.000000, 2.000000)">
                            <g id="icons8-video-paylist">
                                <path d="M5,0 C4.449219,0 4,0.449219 4,1 L4,2 L16,2 L16,1 C16,0.449219 15.550781,0 15,0 L5,0 Z M3,3 C2.449219,3 2,3.449219 2,4 L2,5 L18,5 L18,4 C18,3.449219 17.550781,3 17,3 L3,3 Z M2,6 C0.894531,6 0,6.894531 0,8 L0,18 C0,19.105469 0.894531,20 2,20 L18,20 C19.105469,20 20,19.105469 20,18 L20,8 C20,6.894531 19.105469,6 18,6 L2,6 Z M7,9 L14,13 L7,17 L7,9 Z" id="Shape"></path>
                            </g>
                        </g>
                    </g>
                </g>
            </g>
        </g>
    </g>
</svg>