<?xml version="1.0" encoding="UTF-8"?>
<svg width="18px" height="20px" viewBox="0 0 18 20" version="1.1" xmlns="http://www.w3.org/2000/svg" xmlns:xlink="http://www.w3.org/1999/xlink">
    <!-- Generator: Sketch 49.2 (51160) - http://www.bohemiancoding.com/sketch -->
    <title>1</title>
    <desc>Created with Sketch.</desc>
    <defs>
        <polygon id="path-1" points="0 0 24 0 24 24 0 24"></polygon>
    </defs>
    <g id="Web-PC" stroke="none" stroke-width="1" fill="none" fill-rule="evenodd">
        <g id="Trang-Chu" transform="translate(-222.000000, -110.000000)">
            <g id="LEFT" transform="translate(214.000000, 77.000000)">
                <g id="Group-4">
                    <g id="1" transform="translate(5.000000, 31.000000)">
                        <mask id="mask-2" fill="white">
                            <use xlink:href="#path-1"></use>
                        </mask>
                        <g id="Clip-2"></g>
                        <path d="M3.16376719,14.0592308 C3.62838257,11.8138462 5.34222872,9.98538462 5.48761334,7.74153846 C6.13684411,8.92307692 6.21376719,9.77538462 6.28684411,11.01 C8.35069026,8.48076923 10.4922287,5.09538462 10.0283826,2 C10.0283826,2 13.942998,3.23 15.5253056,9.23384615 C16.4614595,8.40076923 16.372998,6.68692308 15.9106903,5.67384615 C17.299921,6.68692308 25.2753056,15.6761538 14.6576133,21.6830769 C16.6537672,17.7961538 15.172998,12.5523077 11.7068441,10.1292308 C11.9383826,11.1707692 11.6491518,13.8907692 10.1160749,15.5976923 C10.462998,13.8323077 9.59530565,12.7038462 9.59530565,12.7038462 C9.59530565,12.7038462 9.31069026,14.3023077 8.20607488,15.9161538 C7.19761334,17.3892308 6.49992103,18.9538462 7.81145949,21.6830769 C3.63530565,19.3307692 2.53607488,17.1030769 3.16376719,14.0592308" id="Fill-1" fill="#83909E" mask="url(#mask-2)"></path>
                    </g>
                </g>
            </g>
        </g>
    </g>
</svg>