<?xml version="1.0" encoding="UTF-8"?>
<svg width="18px" height="15px" viewBox="0 0 18 15" version="1.1" xmlns="http://www.w3.org/2000/svg" xmlns:xlink="http://www.w3.org/1999/xlink">
    <!-- Generator: Sketch 49.2 (51160) - http://www.bohemiancoding.com/sketch -->
    <title>Combined Shape</title>
    <desc>Created with Sketch.</desc>
    <defs></defs>
    <g id="Web-PC" stroke="none" stroke-width="1" fill="none" fill-rule="evenodd">
        <g id="Thong-Bao" transform="translate(-970.000000, -78.000000)" fill="#83909E">
            <g id="Group-10" transform="translate(943.000000, 55.000000)">
                <g id="Group-9" transform="translate(1.000000, 1.000000)">
                    <g id="icons8-checklist" transform="translate(26.000000, 22.000000)">
                        <path d="M1,0 L2,0 C2.55228475,-1.01453063e-16 3,0.44771525 3,1 L3,2 C3,2.55228475 2.55228475,3 2,3 L1,3 C0.44771525,3 6.76353751e-17,2.55228475 0,2 L0,1 C-6.76353751e-17,0.44771525 0.44771525,1.01453063e-16 1,0 Z M5.5,0 L17,0 C17.5522847,-1.01453063e-16 18,0.44771525 18,1 L18,2 C18,2.55228475 17.5522847,3 17,3 L5.5,3 C4.94771525,3 4.5,2.55228475 4.5,2 L4.5,1 C4.5,0.44771525 4.94771525,1.01453063e-16 5.5,0 Z M1,6 L2,6 C2.55228475,6 3,6.44771525 3,7 L3,8 C3,8.55228475 2.55228475,9 2,9 L1,9 C0.44771525,9 6.76353751e-17,8.55228475 0,8 L0,7 C-6.76353751e-17,6.44771525 0.44771525,6 1,6 Z M5.5,6 L17,6 C17.5522847,6 18,6.44771525 18,7 L18,8 C18,8.55228475 17.5522847,9 17,9 L5.5,9 C4.94771525,9 4.5,8.55228475 4.5,8 L4.5,7 C4.5,6.44771525 4.94771525,6 5.5,6 Z M1,12 L2,12 C2.55228475,12 3,12.4477153 3,13 L3,14 C3,14.5522847 2.55228475,15 2,15 L1,15 C0.44771525,15 6.76353751e-17,14.5522847 0,14 L0,13 C-6.76353751e-17,12.4477153 0.44771525,12 1,12 Z M5.5,12 L17,12 C17.5522847,12 18,12.4477153 18,13 L18,14 C18,14.5522847 17.5522847,15 17,15 L5.5,15 C4.94771525,15 4.5,14.5522847 4.5,14 L4.5,13 C4.5,12.4477153 4.94771525,12 5.5,12 Z" id="Combined-Shape"></path>
                    </g>
                </g>
            </g>
        </g>
    </g>
</svg>