<?xml version="1.0" encoding="UTF-8"?>
<svg width="20px" height="20px" viewBox="0 0 20 20" version="1.1" xmlns="http://www.w3.org/2000/svg" xmlns:xlink="http://www.w3.org/1999/xlink">
    <!-- Generator: Sketch 49.2 (51160) - http://www.bohemiancoding.com/sketch -->
    <title>Shape</title>
    <desc>Created with Sketch.</desc>
    <defs></defs>
    <g id="Web-PC" stroke="none" stroke-width="1" fill="none" fill-rule="evenodd">
        <g id="Ca-Nhan" transform="translate(-221.000000, -529.000000)" fill="#83909E" fill-rule="nonzero">
            <g id="LEFT" transform="translate(214.000000, 458.000000)">
                <g id="Group-4">
                    <g id="2" transform="translate(5.000000, 69.000000)">
                        <path d="M12,2 C6.476563,2 2,6.476563 2,12 C2,17.523438 6.476563,22 12,22 C17.523438,22 22,17.523438 22,12 C22,10.089844 21.460938,8.300781 20.53125,6.78125 L19.0625,8.28125 C19.65625,9.398438 20,10.648438 20,12 C20,16.417969 16.417969,20 12,20 C7.582031,20 4,16.417969 4,12 C4,7.582031 7.582031,4 12,4 C13.363281,4 14.628906,4.367188 15.75,4.96875 L17.21875,3.5 C15.695313,2.5625 13.921875,2 12,2 Z M20.5,2.09375 L12.5,10.0625 C12.335938,10.019531 12.179688,10 12,10 C10.894531,10 10,10.894531 10,12 C10,13.105469 10.894531,14 12,14 C13.105469,14 14,13.105469 14,12 C14,11.820313 13.980469,11.664063 13.9375,11.5 L21.90625,3.5 L20.5,2.09375 Z M12,6 C8.6875,6 6,8.6875 6,12 C6,15.3125 8.6875,18 12,18 C15.3125,18 18,15.3125 18,12 C18,11.207031 17.84375,10.472656 17.5625,9.78125 L15.9375,11.375 C15.972656,11.574219 16,11.789063 16,12 C16,14.210938 14.210938,16 12,16 C9.789063,16 8,14.210938 8,12 C8,9.789063 9.789063,8 12,8 C12.222656,8 12.445313,8.023438 12.65625,8.0625 L14.25,6.46875 C13.550781,6.179688 12.804688,6 12,6 Z" id="Shape"></path>
                    </g>
                </g>
            </g>
        </g>
    </g>
</svg>