<?xml version="1.0" encoding="UTF-8"?>
<svg width="22px" height="18px" viewBox="0 0 22 18" version="1.1" xmlns="http://www.w3.org/2000/svg" xmlns:xlink="http://www.w3.org/1999/xlink">
    <!-- Generator: Sketch 49.2 (51160) - http://www.bohemiancoding.com/sketch -->
    <title>Shape</title>
    <desc>Created with Sketch.</desc>
    <defs></defs>
    <g id="Web-PC" stroke="none" stroke-width="1" fill="none" fill-rule="evenodd">
        <g id="Ca-Nhan" transform="translate(-220.000000, -492.000000)" fill="#83909E" fill-rule="nonzero">
            <g id="LEFT" transform="translate(214.000000, 458.000000)">
                <g id="Group-4">
                    <g id="1" transform="translate(5.000000, 31.000000)">
                        <g id="icons8-edit-user" transform="translate(1.000000, 2.000000)">
                            <g id="icons8-edit-file">
                                <g id="icons8-hand-with-pen-filled" transform="translate(0.000000, 1.000000)">
                                    <path d="M11.477696,0.00313271882 C11.4171577,0.00880781637 11.3585112,0.0182672809 11.2979729,0.0296179603 C10.8136669,0.126100915 10.2801734,0.513923947 9.79586739,0.998229933 L12.1190227,2.45114789 C12.4103632,1.48253592 12.6052208,0.513923947 11.9752443,0.126100915 C11.8295743,0.0163750974 11.6574185,-0.0101101441 11.477696,0.00313271882 Z M9.11859598,1.72468891 C8.53591534,2.45114789 7.22866742,4.14621884 5.87223241,6.2783004 C5.43711351,6.95557181 5.00010339,7.73121836 4.56498449,8.45767734 C4.56498449,8.89279575 4.51768911,9.28061927 4.46850154,9.6684423 C4.3228315,10.5878667 4.0806785,11.3616216 3.93500847,11.6529616 C3.74204256,12.1864552 3.45070248,12.5723865 3.1612541,12.8637266 L5.00199509,14.0271962 C5.29144347,13.6393731 5.77574946,12.9602096 6.3565384,12.184563 L6.06519784,11.9915976 C4.95280752,11.4108086 4.41931445,10.1035607 4.85443287,8.89279575 C5.19496052,7.92418378 6.16357249,7.29420776 7.18137203,7.29420776 C7.37433745,7.29420776 7.56730336,7.34150314 7.80945636,7.39069071 L9.3115614,7.77851374 C10.4731393,5.8412898 11.3452683,4.09703176 11.7330913,3.27408983 L9.11859598,1.72468891 Z M6.93921904,3.08112392 L3.59637252,3.5654299 C3.25773657,3.61461747 3.01558358,3.8075829 2.86991354,4.09892346 L0.157043529,10.2000437 C0.0605605744,10.4421967 -0.0359223799,10.7808326 0.013265189,11.0721727 C0.0605605744,11.6056662 0.302713568,12.0880805 0.6905366,12.426716 C1.22403015,12.7672436 1.85211448,12.6707612 2.14345456,12.5250907 C2.82072645,12.2337506 3.06287945,11.3143257 3.11206653,11.0721727 C3.25773657,10.5386796 3.74204256,9.08576166 3.54718543,7.68203079 L3.98419555,7.6328437 C4.3228315,7.00286768 4.71065453,6.42207874 5.04929048,5.8412898 C5.72656237,4.77619487 6.3565384,3.85677047 6.93921904,3.08112392 Z M12.5560333,3.95136124 C12.2173973,4.67782022 11.3944559,6.32559578 10.2801734,8.16633677 L11.5401259,8.50497272 L12.5087379,8.7944211 L11.9752443,9.57006765 L7.56730336,8.40848977 C6.84084438,8.21552434 6.06709002,8.60145568 5.77574946,9.32791466 C5.48440938,10.0543736 5.82493703,10.8773156 6.50220844,11.215951 L12.0244319,14.3166446 C12.8473738,14.7517635 13.7667982,14.8974335 14.6881148,14.7536552 C14.7845978,14.7536552 18.5625627,13.879634 18.5625627,13.879634 L17.5447632,7.00475938 L12.7017033,4.00054881 C12.6525162,3.95136124 12.6052208,3.95136124 12.5560333,3.95136124 Z M20.6927521,6.2783004 L18.4641881,6.61504416 L19.7733277,15.1395865 L22,14.8009505 L20.6927521,6.2783004 Z M2.09426747,13.395328 C1.56266562,14.8974335 1.56266562,15.8660455 1.56266562,16.2538685 L1.22403015,16.7381745 C1.1256555,16.8838445 1.17484259,17.0768104 1.32051262,17.1751851 C1.41699558,17.2224805 1.46618315,17.2224805 1.56266562,17.2224805 C1.65914857,17.1732934 1.70833614,17.1259975 1.80481861,17.0768104 L2.09426747,16.5925045 C2.43479512,16.4468344 3.30503244,16.0117155 4.41931445,14.8482459 L2.09426747,13.395328 Z" id="Shape"></path>
                                </g>
                            </g>
                        </g>
                    </g>
                </g>
            </g>
        </g>
    </g>
</svg>