<?xml version="1.0" ?><!DOCTYPE svg  PUBLIC '-//W3C//DTD SVG 1.1//EN'  'http://www.w3.org/Graphics/SVG/1.1/DTD/svg11.dtd'><svg enable-background="new 0 0 50 50" id="Layer_1" version="1.1" viewBox="0 0 50 50" xml:space="preserve" xmlns="http://www.w3.org/2000/svg" xmlns:xlink="http://www.w3.org/1999/xlink"><g id="HTML_5"><polygon fill="#F16529" points="17.4,12.7 18.6,12.7 18.6,14 20,14 20,10 18.6,10 18.6,11.3 17.4,11.3 17.4,10 16,10 16,14    17.4,14  "/><polygon fill="#F16529" points="22.2,14 23.5,14 23.5,11.3 24.7,11.3 24.7,10 21,10 21,11.3 22.2,11.3  "/><polygon fill="#F16529" points="26.8,12 27.7,13.5 27.7,13.5 28.6,12 28.6,14 30,14 30,10 28.6,10 27.7,11.4 26.8,10 25.4,10    25.4,14 26.8,14  "/><polygon fill="#F16529" points="34,12.7 32.1,12.7 32.1,10 30.7,10 30.7,14 34,14  "/><path d="M14,16l2,22l9,2l9-2l2-22H14z M31.5,23H25h-4l0.5,2H25h6l-1,9l-5,2l-5-2l-0.8-4H22l0.5,2l2.5,1l2.5-1l0.5-4   h-3h-6l-1-8h7h7L31.5,23z" fill="#F16529"/></g><path d="M25,1C11.7,1,1,11.7,1,25s10.7,24,24,24s24-10.7,24-24S38.3,1,25,1z M25,44C14.5,44,6,35.5,6,25S14.5,6,25,6  s19,8.5,19,19S35.5,44,25,44z" fill="#F16529"/></svg>